<?xml version="1.0" standalone="no"?><!DOCTYPE svg PUBLIC "-//W3C//DTD SVG 1.1//EN" "http://www.w3.org/Graphics/SVG/1.1/DTD/svg11.dtd"><svg t="1773540102662" class="icon" viewBox="0 0 1024 1024" version="1.1" xmlns="http://www.w3.org/2000/svg" p-id="10025" xmlns:xlink="http://www.w3.org/1999/xlink" width="200" height="200" fill="currentColor"><path d="M867.74784 904.19712C864.555008 905.872384 861.133824 906.668032 857.761792 906.668032 849.979392 906.668032 842.457088 902.426624 838.600704 895.025152L708.160512 613.594112C707.196928 613.740544 706.221056 613.842944 705.222656 613.842944L319.125504 613.842944C318.014464 613.842944 316.932096 613.718016 315.865088 613.536768L185.399296 895.025152C181.542912 902.426624 174.020608 906.668032 166.238208 906.668032 162.866176 906.668032 159.444992 905.872384 156.251136 904.19712 145.680384 898.649088 141.587456 885.552128 147.108864 874.94144L492.075008 130.664448C492.166144 130.443264 492.27776 130.231296 492.376064 130.013184L492.854272 128.982016C492.878848 128.933888 492.909568 128.891904 492.935168 128.8448 493.13792 128.459776 493.369344 128.089088 493.595648 127.716352 493.743104 127.475712 493.878272 127.223808 494.032896 126.990336 494.251008 126.661632 494.495744 126.350336 494.732288 126.032896 494.9248 125.775872 495.105024 125.50656 495.306752 125.259776 495.47776 125.05088 495.671296 124.857344 495.850496 124.653568 496.14336 124.321792 496.43008 123.983872 496.740352 123.672576 496.840704 123.572224 496.954368 123.482112 497.056768 123.383808 497.468416 122.98752 497.88416 122.5984 498.322432 122.24 498.42176 122.15808 498.533376 122.0864 498.634752 122.006528 499.093504 121.644032 499.5584 121.291776 500.042752 120.969216 500.197376 120.865792 500.366336 120.776704 500.525056 120.677376 500.969472 120.397824 501.41696 120.122368 501.878784 119.876608 501.919744 119.855104 501.956608 119.82848 501.997568 119.806976 502.212608 119.694336 502.434816 119.610368 502.651904 119.50592 503.027712 119.324672 503.402496 119.140352 503.788544 118.981632 504.133632 118.838272 504.482816 118.721536 504.830976 118.597632 505.136128 118.490112 505.438208 118.377472 505.747456 118.283264 506.144768 118.162432 506.544128 118.066176 506.944512 117.968896 507.219968 117.902336 507.493376 117.830656 507.771904 117.774336 508.178432 117.69344 508.58496 117.634048 508.992512 117.576704 509.282304 117.535744 509.571072 117.491712 509.862912 117.462016 510.242816 117.424128 510.621696 117.405696 511.000576 117.388288 511.332352 117.372928 511.664128 117.356544 511.996928 117.35552 512.330752 117.356544 512.661504 117.372928 512.99328 117.388288 513.373184 117.405696 513.753088 117.424128 514.132992 117.462016 514.42176 117.490688 514.70848 117.53472 514.9952 117.57568 515.407872 117.633024 515.818496 117.69344 516.228096 117.77536 516.498432 117.829632 516.763648 117.899264 517.030912 117.963776 517.441536 118.063104 517.851136 118.162432 518.259712 118.286336 518.54848 118.3744 518.831104 118.480896 519.115776 118.580224 519.487488 118.711296 519.858176 118.836224 520.225792 118.9888 520.568832 119.130112 520.900608 119.294976 521.23648 119.45472 521.491456 119.575552 521.750528 119.67488 522.002432 119.806976 522.05056 119.832576 522.094592 119.86432 522.14272 119.88992 522.532864 120.097792 522.907648 120.333312 523.28448 120.564736 523.51488 120.706048 523.75552 120.836096 523.978752 120.984576 524.358656 121.238528 524.720128 121.521152 525.085696 121.79968 525.287424 121.954304 525.50144 122.09664 525.696 122.256384 526.006272 122.51136 526.297088 122.795008 526.594048 123.068416 526.820352 123.276288 527.058944 123.47392 527.275008 123.689984 527.481856 123.897856 527.669248 124.127232 527.868928 124.34432 528.151552 124.652544 528.442368 124.9536 528.704512 125.275136 528.852992 125.457408 528.984064 125.657088 529.1264 125.84448 529.417216 126.225408 529.711104 126.604288 529.974272 127.002624 530.108416 127.205376 530.224128 127.423488 530.352128 127.63136 530.599936 128.033792 530.847744 128.4352 531.067904 128.851968 531.09248 128.897024 531.121152 128.93696 531.144704 128.982016L531.59936 129.964032C531.707904 130.200576 531.827712 130.430976 531.928064 130.671616L876.891136 874.94144C882.41152 885.552128 878.319616 898.649088 867.74784 904.19712ZM512 190.364672 339.586048 562.357248 684.412928 562.357248 512 190.364672Z" p-id="10026"></path></svg>